<svg width="499" height="162" viewBox="0 0 499 162" fill="none" xmlns="http://www.w3.org/2000/svg">
<g clip-path="url(#clip0_1235_932)">
<path d="M25.9021 106.273C22.3035 106.273 19.3522 105.841 17.0527 104.976C14.7497 104.113 12.951 102.782 11.6556 100.98C10.3601 99.1799 9.46017 96.9504 8.95698 94.2852C8.45258 91.6223 8.2022 88.5613 8.2022 85.1044C8.2022 83.8081 8.23728 82.404 8.31227 80.8923C8.38243 79.3805 8.52637 77.4742 8.74167 75.1684C8.95698 72.8662 9.17471 69.9855 9.39001 66.5287C9.60532 63.073 9.92949 58.6455 10.3601 53.2435C10.7931 47.844 11.2951 41.3309 11.8733 33.6958C12.4454 26.0668 13.0938 16.9236 13.8147 6.26494C13.9574 3.09859 14.3167 1.22612 14.8948 0.648773C15.3242 0.215454 16.4758 0 18.3482 0H31.0839C38.9958 0 44.6458 1.5493 48.0278 4.64546C51.4086 7.74403 53.102 11.3776 53.102 15.5522C53.102 18.1448 52.8468 21.5666 52.346 25.8114C51.8392 30.0611 51.1582 34.7767 50.2958 39.9596C49.4309 45.1461 48.4596 50.5807 47.3819 56.2683C46.3017 61.9583 45.2228 67.5744 44.1426 73.1156C43.0625 78.6615 42.0174 83.9533 41.0134 88.9922C40.0034 94.0346 39.141 98.3545 38.4225 101.953C38.1322 103.68 37.6677 104.834 37.0194 105.407C36.3722 105.985 35.2558 106.273 33.6737 106.273H25.9021ZM21.1544 121.393C27.1975 121.393 31.5145 122.871 34.1055 125.819C36.694 128.773 37.9907 132.915 37.9907 138.241C37.9907 140.546 37.7004 143.066 37.127 145.799C36.55 148.537 35.5086 151.092 33.9978 153.468C32.487 155.843 30.3292 157.863 27.5229 159.516C24.7167 161.168 21.0807 162 16.6209 162C10.1448 162 5.754 160.305 3.45458 156.924C1.15152 153.543 0 149.331 0 144.287C0 141.409 0.358038 138.601 1.07895 135.863C1.79865 133.13 2.94655 130.68 4.53232 128.52C6.11566 126.36 8.27478 124.631 11.0084 123.337C13.7397 122.04 17.1229 121.393 21.1544 121.393Z" fill="#64B531"/>
<path d="M101.809 138.734L78.6784 87.214C78.4244 86.6613 78.4096 86.1552 78.6403 85.702C78.871 85.2488 79.3175 85.0222 79.982 85.0222H92.4658C92.9737 85.0222 93.4731 85.1853 93.9598 85.5135C94.4445 85.8396 94.8127 86.2314 95.0688 86.6846L108.549 117.098C108.803 117.551 109.135 117.778 109.544 117.778C109.952 117.778 110.285 117.551 110.541 117.098L123.943 86.6846C124.199 86.2314 124.569 85.8396 125.054 85.5135C125.539 85.1853 126.036 85.0222 126.548 85.0222H139.262C139.821 85.0222 140.23 85.2361 140.486 85.6639C140.742 86.0937 140.767 86.5088 140.564 86.9133L117.203 138.734C116.947 139.187 116.578 139.577 116.094 139.907C115.607 140.234 115.11 140.399 114.6 140.399H104.414C103.902 140.399 103.405 140.234 102.92 139.907C102.433 139.577 102.065 139.187 101.809 138.734Z" fill="#111827"/>
<path d="M155.422 112.709C155.422 114.626 155.777 116.443 156.493 118.156C157.208 119.871 158.19 121.385 159.443 122.696C160.693 124.007 162.162 125.053 163.847 125.834C165.531 126.618 167.317 127.007 169.207 127.007C171.095 127.007 172.883 126.618 174.57 125.834C176.254 125.053 177.734 124.007 179.012 122.696C180.286 121.385 181.283 119.871 181.998 118.156C182.713 116.443 183.069 114.626 183.069 112.709C183.069 110.843 182.713 109.041 181.998 107.301C181.283 105.56 180.286 104.048 179.012 102.76C177.734 101.475 176.254 100.442 174.57 99.6602C172.883 98.8767 171.095 98.487 169.207 98.487C167.317 98.487 165.531 98.8767 163.847 99.6602C162.162 100.442 160.693 101.475 159.443 102.76C158.19 104.048 157.208 105.56 156.493 107.301C155.777 109.041 155.422 110.843 155.422 112.709ZM140.257 112.709C140.257 108.777 141.023 105.069 142.555 101.589C144.087 98.108 146.155 95.0691 148.758 92.4729C151.363 89.8746 154.425 87.8204 157.949 86.3063C161.472 84.7943 165.224 84.0362 169.207 84.0362C173.19 84.0362 176.942 84.7943 180.466 86.3063C183.989 87.8204 187.064 89.8746 189.695 92.4729C192.325 95.0691 194.405 98.108 195.938 101.589C197.47 105.069 198.236 108.777 198.236 112.709C198.236 116.644 197.47 120.35 195.938 123.829C194.405 127.31 192.325 130.349 189.695 132.945C187.064 135.544 183.989 137.598 180.466 139.112C176.942 140.626 173.19 141.382 169.207 141.382C165.224 141.382 161.472 140.626 157.949 139.112C154.425 137.598 151.363 135.544 148.758 132.945C146.155 130.349 144.087 127.31 142.555 123.829C141.023 120.35 140.257 116.644 140.257 112.709Z" fill="#111827"/>
<path d="M260.271 125.721C258.79 128.084 257.156 130.232 255.37 132.163C253.582 134.094 251.58 135.737 249.358 137.093C247.136 138.448 244.672 139.501 241.968 140.252C239.259 141.004 236.273 141.381 233.005 141.381C228.921 141.381 225.091 140.625 221.518 139.111C217.944 137.599 214.816 135.555 212.135 132.982C209.454 130.412 207.348 127.385 205.816 123.906C204.284 120.427 203.518 116.719 203.518 112.784C203.518 108.85 204.284 105.144 205.816 101.665C207.348 98.1852 209.454 95.157 212.135 92.5862C214.816 90.0132 217.944 87.9718 221.518 86.4577C225.091 84.9457 228.921 84.1876 233.005 84.1876C236.375 84.1876 239.413 84.5666 242.12 85.3226C244.825 86.0807 247.277 87.1396 249.472 88.4991C251.667 89.8629 253.647 91.5146 255.408 93.4565C257.169 95.3984 258.79 97.5287 260.271 99.8476C260.525 100.252 260.578 100.68 260.424 101.135C260.271 101.588 259.964 101.917 259.505 102.118L248.63 106.353C248.118 106.556 247.608 106.556 247.098 106.353C246.588 106.154 246.205 105.851 245.948 105.447C244.469 103.128 242.681 101.349 240.588 100.114C238.493 98.8777 235.966 98.2593 233.005 98.2593C231.065 98.2593 229.239 98.6659 227.529 99.4727C225.819 100.282 224.325 101.357 223.048 102.696C221.772 104.038 220.776 105.593 220.062 107.361C219.347 109.133 218.99 110.953 218.99 112.822C218.99 114.743 219.347 116.577 220.062 118.322C220.776 120.067 221.772 121.596 223.048 122.911C224.325 124.226 225.819 125.287 227.529 126.098C229.239 126.907 231.065 127.309 233.005 127.309C235.812 127.309 238.353 126.642 240.626 125.306C242.899 123.97 244.698 122.242 246.027 120.122C246.281 119.72 246.649 119.417 247.136 119.216C247.62 119.014 248.118 119.014 248.63 119.216L259.505 123.451C259.964 123.654 260.271 123.97 260.424 124.397C260.578 124.827 260.525 125.268 260.271 125.721Z" fill="#111827"/>
<path d="M281.104 100.756V103.932C281.104 104.439 281.283 104.866 281.641 105.22C281.997 105.574 282.433 105.749 282.943 105.749H303.699C304.209 105.749 304.643 105.927 305 106.279C305.356 106.632 305.538 107.062 305.538 107.564V118.004C305.538 118.51 305.356 118.938 305 119.29C304.643 119.643 304.209 119.819 303.699 119.819H282.943C282.433 119.819 281.997 119.997 281.641 120.351C281.283 120.702 281.104 121.132 281.104 121.636V124.51C281.104 125.016 281.283 125.446 281.641 125.797C281.997 126.151 282.433 126.327 282.943 126.327H306.761C307.271 126.327 307.705 126.504 308.062 126.856C308.42 127.21 308.6 127.639 308.6 128.141V138.581C308.6 139.087 308.42 139.515 308.062 139.867C307.705 140.223 307.271 140.398 306.761 140.398H267.778C267.265 140.398 266.832 140.223 266.476 139.867C266.118 139.515 265.938 139.087 265.938 138.581V86.8367C265.938 86.3327 266.118 85.9028 266.476 85.5491C266.832 85.1976 267.265 85.0219 267.778 85.0219H306.761C307.271 85.0219 307.705 85.1976 308.062 85.5491C308.42 85.9028 308.6 86.3327 308.6 86.8367V97.1242C308.6 97.6303 308.42 98.0602 308.062 98.4117C307.705 98.7654 307.271 98.9411 306.761 98.9411H282.943C282.433 98.9411 281.997 99.119 281.641 99.4706C281.283 99.8242 281.104 100.252 281.104 100.756Z" fill="#111827"/>
<path d="M335.396 110.59H343.474C344.084 110.59 344.718 110.478 345.381 110.249C346.041 110.023 346.651 109.671 347.209 109.191C347.77 108.712 348.225 108.121 348.581 107.414C348.936 106.709 349.114 105.874 349.114 104.917C349.114 104.413 349.025 103.82 348.847 103.138C348.669 102.459 348.365 101.804 347.935 101.173C347.503 100.542 346.917 100.013 346.181 99.5829C345.444 99.1551 344.543 98.9413 343.474 98.9413H335.396C334.891 98.9413 334.459 99.1191 334.101 99.4707C333.746 99.8243 333.568 100.252 333.568 100.756V108.776C333.568 109.28 333.746 109.707 334.101 110.061C334.459 110.415 334.891 110.59 335.396 110.59ZM331.72 140.398H320.252C319.738 140.398 319.3 140.223 318.942 139.867C318.583 139.515 318.403 139.088 318.403 138.581V86.8368C318.403 86.3328 318.581 85.9029 318.94 85.5493C319.296 85.1977 319.73 85.022 320.24 85.022H344.062C347.021 85.022 349.751 85.5133 352.254 86.4958C354.756 87.4784 356.889 88.8549 358.652 90.6189C360.41 92.385 361.792 94.4773 362.785 96.8977C363.782 99.3182 364.279 101.993 364.279 104.917C364.279 106.531 364.091 108.132 363.708 109.72C363.322 111.308 362.774 112.812 362.061 114.222C361.344 115.635 360.499 116.907 359.53 118.042C358.561 119.177 357.465 120.122 356.239 120.88C355.827 121.183 355.56 121.547 355.435 121.975C355.306 122.405 355.395 122.822 355.702 123.224C357.642 125.746 359.685 128.345 361.83 131.017C363.974 133.69 365.887 136.136 367.574 138.355C367.881 138.759 367.957 139.2 367.803 139.678C367.648 140.157 367.318 140.398 366.81 140.398H352.561C352.051 140.398 351.501 140.259 350.915 139.981C350.329 139.706 349.88 139.365 349.573 138.961C347.95 136.841 346.335 134.7 344.733 132.529C343.133 130.363 341.544 128.169 339.97 125.948C339.665 125.545 339.231 125.204 338.674 124.927C338.116 124.649 337.58 124.51 337.075 124.51H335.398C334.891 124.51 334.459 124.688 334.101 125.041C333.746 125.395 333.568 125.823 333.568 126.327V138.581C333.568 139.088 333.388 139.515 333.028 139.867C332.671 140.223 332.233 140.398 331.72 140.398Z" fill="#111827"/>
<path d="M387.418 140.398H375.912C375.356 140.398 374.909 140.222 374.579 139.868C374.249 139.515 374.084 139.087 374.084 138.583V86.9124C374.084 86.4084 374.249 85.9785 374.579 85.627C374.909 85.2734 375.356 85.0955 375.912 85.0955H387.418C387.926 85.0955 388.358 85.2734 388.714 85.627C389.069 85.9785 389.247 86.4084 389.247 86.9124V138.583C389.247 139.087 389.069 139.515 388.714 139.868C388.358 140.222 387.926 140.398 387.418 140.398Z" fill="#111827"/>
<path d="M436.964 98.9413H426.239C425.727 98.9413 425.293 99.117 424.938 99.4707C424.578 99.8243 424.4 100.252 424.4 100.756V138.581C424.4 139.088 424.235 139.515 423.903 139.867C423.573 140.223 423.124 140.398 422.563 140.398H411.076C410.564 140.398 410.128 140.223 409.772 139.867C409.415 139.515 409.235 139.088 409.235 138.581V100.756C409.235 100.252 409.07 99.8243 408.74 99.4707C408.407 99.117 407.959 98.9413 407.398 98.9413H396.523C396.01 98.9413 395.577 98.7655 395.221 98.4119C394.861 98.0582 394.684 97.6304 394.684 97.1243V86.8368C394.684 86.3328 394.861 85.9029 395.221 85.5493C395.577 85.1977 396.01 85.022 396.523 85.022H436.964C437.525 85.022 437.969 85.1977 438.304 85.5493C438.634 85.9029 438.801 86.3328 438.801 86.8368V97.1243C438.801 97.6304 438.634 98.0582 438.304 98.4119C437.969 98.7655 437.525 98.9413 436.964 98.9413Z" fill="#111827"/>
<path d="M456.189 112.709C456.189 114.626 456.544 116.443 457.259 118.156C457.975 119.871 458.959 121.385 460.207 122.696C461.46 124.007 462.929 125.053 464.611 125.834C466.298 126.618 468.084 127.007 469.974 127.007C471.861 127.007 473.65 126.618 475.334 125.834C477.021 125.053 478.502 124.007 479.776 122.696C481.054 121.385 482.049 119.871 482.767 118.156C483.48 116.443 483.835 114.626 483.835 112.709C483.835 110.843 483.48 109.041 482.767 107.301C482.049 105.56 481.054 104.048 479.776 102.76C478.502 101.475 477.021 100.442 475.334 99.6602C473.65 98.8767 471.861 98.487 469.974 98.487C468.084 98.487 466.298 98.8767 464.611 99.6602C462.929 100.442 461.46 101.475 460.207 102.76C458.959 104.048 457.975 105.56 457.259 107.301C456.544 109.041 456.189 110.843 456.189 112.709ZM441.023 112.709C441.023 108.777 441.787 105.069 443.32 101.589C444.854 98.108 446.921 95.0691 449.524 92.4729C452.127 89.8746 455.19 87.8204 458.713 86.3063C462.237 84.7943 465.991 84.0362 469.974 84.0362C473.957 84.0362 477.709 84.7943 481.232 86.3063C484.756 87.8204 487.831 89.8746 490.461 92.4729C493.09 95.0691 495.172 98.108 496.706 101.589C498.236 105.069 499 108.777 499 112.709C499 116.644 498.236 120.35 496.706 123.829C495.172 127.31 493.09 130.349 490.461 132.945C487.831 135.544 484.756 137.598 481.232 139.112C477.709 140.626 473.957 141.382 469.974 141.382C465.991 141.382 462.237 140.626 458.713 139.112C455.19 137.598 452.127 135.544 449.524 132.945C446.921 130.349 444.854 127.31 443.32 123.829C441.787 120.35 441.023 116.644 441.023 112.709Z" fill="#111827"/>
<path d="M132.729 44.9518L132.807 46.1821L132.494 50.8854V57.6873L132.339 60.7261V64.9953L132.261 65.7916L131.795 66.5158L131.173 67.456L130.473 68.3963L129.152 69.6266L128.217 70.4229L127.751 70.857L126.74 71.5092L126.196 71.7972L125.186 72.3774L123.631 73.0996L122.463 73.5337L121.377 73.8958L119.589 74.4019L118.421 74.692L117.176 74.908L116.01 75.1261L114.222 75.3443L113.132 75.4883L111.966 75.7043L108.857 76.0664L107.689 76.1405L105.279 75.9944L103.492 75.8504L102.248 75.7043L101.004 75.4883L99.8377 75.1982L97.1141 74.476L95.948 74.1859L94.782 73.8238L93.2244 73.3177L92.215 72.8116L90.6595 72.0153L89.7263 71.3631L88.7168 70.713L87.7835 69.9887L86.8503 69.3386L85.9953 68.6123L84.7509 67.456L83.9722 66.5878L83.1172 65.5014L82.4188 64.4892L80.474 61.2323L79.9301 60.076L79.3841 58.9897L78.9969 57.8334L78.6075 56.601L78.3747 55.4447L78.1419 54.2144L77.9853 53.056L77.6742 51.4636L77.5197 50.3052L77.4414 49.221V48.1346L77.6742 44.8798L77.8308 44.2996L78.0636 43.0692L78.3747 41.841L78.7641 40.6826L79.1513 39.4523L79.5407 38.2939L79.9301 37.2097L80.474 36.0513L81.0179 34.821L81.5618 33.8087L82.5733 32.5064L83.2717 31.6381L84.1288 30.6958L84.9837 29.8276L85.917 29.0313L87.938 27.4388L88.9496 26.7167L89.8829 26.0645L90.8161 25.4864L93.381 24.112L94.5471 23.4598L95.8697 22.9537L97.1924 22.5916L98.4368 22.3014L101.313 21.8694L103.569 21.5793L104.735 21.3612L105.901 21.2172L107.689 21.0732L108.933 20.9991L110.643 21.1452L111.811 21.2172L113.6 21.4353L114.69 21.6513L116.4 21.9414L117.563 22.2316L119.275 22.7377L120.442 23.0977L123.241 24.4L124.407 25.0523L125.419 25.7045L125.808 25.9205L126.663 26.4266L127.518 27.0068L127.908 27.369L128.761 27.9471L129.228 28.3092L129.696 28.8153V29.3214L129.461 29.8276L128.995 30.4798L128.297 31.42L127.518 32.2163L125.341 34.2407L123.942 35.3991L123.009 36.1233L122.154 36.7014L121.531 37.1356L121.064 37.4257L120.442 37.4977L119.589 36.9916L118.577 36.3414L117.563 35.7612L116.478 35.1831L115.233 34.6749L113.989 34.2407L112.669 33.9527L111.344 33.7367L107.689 33.5186H107.145L105.901 33.5906L103.88 33.7367L102.635 34.0247L100.303 35.037L99.2917 35.6892L98.2801 36.4134L97.4252 37.2097L96.6485 38.1499L95.948 39.0901L95.3259 40.1024L94.8582 41.1887L94.4688 42.3471L94.1598 43.4313L93.6921 45.604L93.4593 46.7603L93.381 47.9906V49.221L93.5376 50.9574L93.7704 52.1158L94.1598 53.7803L94.5471 54.9365L95.3259 56.6751L95.8697 57.6873L96.803 58.9897L97.5797 59.8579L98.9806 61.0883L99.9922 61.8125L101.548 62.6066L102.714 63.0407L105.046 63.549L106.368 63.693L107.689 63.765H108.933L110.178 63.621L111.344 63.4029L115.542 62.4626L116.787 62.0285L117.955 61.5224L118.732 61.0163L118.967 60.5821V59.7859L119.043 59.1337V58.0494L118.888 55.8789V54.6485L118.577 54.2144L117.722 54.0683H115.856L114.611 54.1403L112.823 54.3584L111.579 54.4304H109.79L108.546 54.3584L105.901 53.9243L105.435 53.7803L105.124 53.4181L104.968 52.5499L104.891 51.9697L104.813 50.8134L104.891 49.005L104.735 46.8323L104.58 45.7459V44.2276L104.813 43.4313L105.202 43.0692L106.136 42.9252L108.078 42.7092L109.401 42.6372H112.978L118.031 42.4191L124.253 42.7812H125.497L128.684 42.4191L129.929 42.3471L130.551 42.4191L131.717 42.6372L132.261 42.9252L132.417 43.3593L132.65 44.3737L132.729 44.9518Z" fill="#111827"/>
<path d="M194.227 49.1488L194.382 51.4634L194.305 52.5498L194.227 54.2142L194.073 55.2985L193.759 57.035L193.527 58.1933L193.218 59.8578L192.905 60.9441L192.284 62.4625L191.893 63.4768L191.195 64.9952L190.651 66.0074L189.641 67.4559L188.86 68.3961L187.929 69.3385L186.918 70.1326L185.364 71.2909L184.351 71.9432L182.797 72.8114L181.786 73.3175L180.152 74.0397L178.988 74.4018L177.276 74.982L176.11 75.27L174.322 75.5601L173.154 75.7782L170.743 75.9222H167.167L165.378 75.7782L164.212 75.7062L159.935 75.27L158.691 75.054L157.991 74.982L156.748 74.6199L156.126 74.4018L154.882 73.8978L153.17 73.1735L152.004 72.5213L150.838 71.7971L148.817 70.2067L147.962 69.4105L146.95 68.1801L146.25 67.3119L145.005 65.4293L144.307 64.4171L143.685 63.3307L143.139 62.1724L142.673 61.0881L142.362 60.0759L142.051 58.9895L141.74 57.3971L141.505 56.1667L141.35 54.9364L141.196 52.4778L141.118 51.3194L141.35 46.9041V45.7479L141.196 41.3347V40.1764L141.429 35.7611V29.0312L141.274 26.7166V25.4863L141.35 24.2559L141.583 23.0975L142.127 22.4474L143.139 22.2314L145.706 22.0853L148.66 22.3013H149.904L152.471 22.2314L153.637 22.3013L155.426 22.3754L156.435 22.5914L157.057 23.1695L157.292 24.1119L157.368 25.1241V26.2105L157.214 29.0312V30.1895L157.447 34.6048V35.7611L157.368 40.1764V41.3347L157.138 45.7479V46.9041L157.057 51.3194L157.138 52.4778L157.292 54.2862L157.525 55.4446L157.991 57.035L158.458 58.1213L159.235 59.7858L160.014 60.654L161.256 61.8844L162.268 62.4625L163.977 63.0427L165.143 63.3307L167.167 63.4768H168.411L170.432 63.1147L171.6 62.8246L173.075 62.1724L174.087 61.5942L175.333 60.582L176.11 59.7138L176.965 58.1933L177.509 57.1091L177.898 55.9507L178.131 54.7945L178.444 52.6218L178.52 51.4634L178.209 47.0502V45.8919L178.444 41.4067V40.2484L178.599 35.8331V34.6768L178.444 30.1895L178.366 29.0312L178.131 25.9924V24.1839L178.444 23.1695L179.143 22.5914L180.152 22.3754H181.786L185.754 22.6634H186.996L190.105 22.4474H191.349L192.515 22.5194L193.527 22.7375L194.149 23.2437L194.227 24.1119L194.305 26.2825V27.3688L194.227 29.0312V30.1895L194.462 34.6768V35.8331L194.305 40.2484V41.4067L193.994 45.8919L194.227 49.1488Z" fill="#111827"/>
<path d="M266.372 52.1877L266.063 51.2475L264.351 46.3261L263.964 45.2397L262.408 40.9726L262.019 40.0303L261.24 39.5242L260.233 39.3061L259.374 39.5242L258.597 40.2484L256.5 45.1698L256.032 46.2541L254.011 51.1013L253.776 52.1877L254.011 53.0559L254.866 53.4181L255.956 53.5621H260.855L264.508 53.7802L265.519 53.4901L266.141 52.9119L266.372 52.1877ZM292.345 72.5933L292.58 73.6056L292.036 74.4018L291.179 74.7639L290.169 74.9079H289.079L287.291 74.7639L286.125 74.6919H282.627L277.804 74.9821L276.792 74.6919L276.325 74.1138L275.94 73.3176L273.527 67.2378L272.983 66.5157L272.283 66.3717L271.349 66.2976L266.683 66.0075H265.441L259.611 65.8635L254.944 65.7915H253.776L252.61 65.8635H249.036L248.024 66.0075L247.402 66.3717L246.934 67.2378L245.146 72.1592L244.68 73.3176L243.823 74.2578L242.657 74.6919L241.413 74.6199L236.903 74.4018H235.659L230.836 74.6919L229.826 74.7639L228.893 74.3298L228.271 73.5336L228.349 72.5933L228.506 72.0152L228.971 70.8569L230.059 68.6122L230.527 67.5279L232.47 63.4769L232.937 62.4625L234.958 58.4093L235.426 57.3251L237.214 53.4181L237.68 52.3317L239.781 48.2806L240.245 47.2684L243.047 41.3348L245.222 36.9915L245.768 35.8331L247.478 32.5783L248.024 31.4199L249.499 28.091L249.967 27.0068L251.366 24.0399L251.755 23.2437L252.532 22.8096L253.7 22.5915L257.276 22.4475H263.342L266.918 22.5195L268.241 22.7376L269.096 23.3157L269.485 24.2559L270.571 27.0788L271.038 28.1651L272.983 31.5639L273.451 32.5783L275.161 36.1232L275.626 37.1355L277.027 40.8265L277.493 41.8409L279.203 45.3138L279.671 46.3261L281.383 49.871L281.846 50.8853L283.404 54.5023L283.871 55.5166L286.28 60.0018L288.148 63.4028L288.69 64.4171L290.791 68.9743L292.345 72.5933Z" fill="#111827"/>
<path d="M220.501 26.6435L220.423 25.4873L220.266 23.6047L220.19 22.8085L220.033 22.3744L219.178 22.2304H214.358L210.781 22.3744H209.537L207.67 22.3024L206.504 22.3744H205.882L205.105 22.4485L204.638 22.7365L204.405 23.5327L204.559 27.5118V32.2574L204.557 32.3993L220.501 28.8544V26.6435Z" fill="#111827"/>
<path d="M220.423 52.9114L220.578 49.0044V47.846L220.501 43.939V42.7806L220.578 38.7994V37.6432L220.501 33.7361V32.7768L204.556 36.3239L204.481 37.6432V38.7994L204.56 42.7806V49.0044L204.638 52.9114V54.0677L204.871 58.0488L204.795 59.2072L204.56 63.1143L204.481 64.2726L204.716 68.1797V69.266L204.795 70.3503V71.5086L204.949 73.3171V74.0413L205.182 74.2573L205.65 74.4013L209.535 74.6914H214.358L218.322 74.7634L219.412 74.6914L220.034 74.4754L220.267 74.1133V73.3171L220.345 69.338V68.1797L220.656 64.2726V63.1143L220.423 59.2072V52.9114Z" fill="#111827"/>
</g>
<defs>
<clipPath id="clip0_1235_932">
<rect width="499" height="162" fill="white"/>
</clipPath>
</defs>
</svg>
