<svg width="74" height="182" viewBox="0 0 74 182" fill="none" xmlns="http://www.w3.org/2000/svg">
<path d="M35.9021 116.273C32.3035 116.273 29.3522 115.841 27.0527 114.976C24.7497 114.113 22.951 112.782 21.6556 110.98C20.3601 109.18 19.4602 106.95 18.957 104.285C18.4526 101.622 18.2022 98.5613 18.2022 95.1044C18.2022 93.8081 18.2373 92.404 18.3123 90.8923C18.3824 89.3805 18.5264 87.4742 18.7417 85.1684C18.957 82.8662 19.1747 79.9855 19.39 76.5287C19.6053 73.073 19.9295 68.6455 20.3601 63.2435C20.7931 57.844 21.2951 51.3309 21.8733 43.6958C22.4454 36.0668 23.0938 26.9236 23.8147 16.2649C23.9574 13.0986 24.3167 11.2261 24.8948 10.6488C25.3242 10.2155 26.4758 9.99999 28.3482 9.99999H41.0839C48.9958 9.99999 54.6458 11.5493 58.0278 14.6455C61.4086 17.744 63.102 21.3776 63.102 25.5522C63.102 28.1448 62.8468 31.5666 62.346 35.8114C61.8392 40.0611 61.1582 44.7767 60.2958 49.9596C59.4309 55.1461 58.4596 60.5807 57.3819 66.2683C56.3017 71.9583 55.2228 77.5744 54.1426 83.1156C53.0625 88.6615 52.0174 93.9533 51.0134 98.9922C50.0034 104.035 49.141 108.354 48.4225 111.953C48.1322 113.68 47.6677 114.834 47.0194 115.407C46.3722 115.985 45.2558 116.273 43.6737 116.273H35.9021ZM31.1544 131.393C37.1975 131.393 41.5145 132.871 44.1055 135.819C46.694 138.773 47.9907 142.915 47.9907 148.241C47.9907 150.546 47.7004 153.066 47.127 155.799C46.5501 158.537 45.5086 161.092 43.9978 163.468C42.4871 165.843 40.3292 167.863 37.5229 169.516C34.7167 171.168 31.0807 172 26.6209 172C20.1448 172 15.754 170.305 13.4546 166.924C11.1515 163.543 10 159.331 10 154.287C10 151.409 10.358 148.601 11.079 145.863C11.7987 143.13 12.9466 140.68 14.5323 138.52C16.1157 136.36 18.2748 134.631 21.0084 133.337C23.7397 132.04 27.1229 131.393 31.1544 131.393Z" fill="#64B531"/>
</svg>
